#Comment line ignore any data following # character 
#Hierarchical Translation and Rotation (.htr) file 
[Header]	
#Header keywords are followed by a single value 
FileType HTR		#Single word string
DataType HTRS		#Translation followed by rotation and scale data
FileVersion 1		#integer
NumSegments 64		#integer
NumFrames 3		#integer
DataFrameRate 30		#integer, data frame rate in this file
EulerRotationOrder ZYX
CalibrationUnits mm
RotationUnits Degrees
GlobalAxisofGravity Y
BoneLengthAxis Y
ScaleFactor 1.00
[SegmentNames&Hierarchy]
#CHILD	PARENT
Pinger_Root GLOBAL
Pelvis Pinger_Root
L_Hip Pelvis
R_Hip Pelvis
Rear_Leg01 Pelvis
Spine1 Pelvis
L_Leg01 L_Hip
L_Leg02 L_Leg01
L_Leg03 L_Leg02
L_Foot L_Leg03
L_Toe1_01 L_Foot
L_Toe2_01 L_Foot
L_Toe3_01 L_Foot
planeAlignerLeft L_Foot
L_Toe1_02 L_Toe1_01
L_Toe1_03 L_Toe1_02
L_Toe2_02 L_Toe2_01
L_Toe2_03 L_Toe2_02
L_Toe3_02 L_Toe3_01
L_Toe3_03 L_Toe3_02
planeLockWeightLeft planeAlignerLeft
R_Leg01 R_Hip
R_Leg02 R_Leg01
R_Leg03 R_Leg02
R_Foot R_Leg03
planeAlignerRight R_Foot
R_Toe1_01 R_Foot
R_Toe2_01 R_Foot
R_Toe3_01 R_Foot
planeLockWeightRight planeAlignerRight
R_Toe1_02 R_Toe1_01
R_Toe1_03 R_Toe1_02
R_Toe2_02 R_Toe2_01
R_Toe2_03 R_Toe2_02
R_Toe3_02 R_Toe3_01
R_Toe3_03 R_Toe3_02
Rear_Leg02 Rear_Leg01
Rear_Leg03 Rear_Leg02
Rear_Leg04 Rear_Leg03
Rear_Foot Rear_Leg04
planeAlignerCenter Rear_Foot
Rear_Toe1_01 Rear_Foot
Rear_Toe2_01 Rear_Foot
Rear_Toe3_01 Rear_Foot
planeLockWeightCenter planeAlignerCenter
Rear_Toe1_02 Rear_Toe1_01
Rear_Toe1_03 Rear_Toe1_02
Rear_Toe2_02 Rear_Toe2_01
Rear_Toe2_03 Rear_Toe2_02
Rear_Toe3_02 Rear_Toe3_01
Rear_Toe3_03 Rear_Toe3_02
Back_Bone Spine1
Head Spine1
Motor_Bone Back_Bone
Ping_Mechanism Back_Bone
BN_LookIK Head
bottomMouth Head
L_Mouth01 Head
L_mouthFront Head
mouthGun Head
R_Mouth01 Head
R_mouthFront Head
TopMouth Head
weapon_bone Head
[BasePosition]
#SegmentName Tx, Ty, Tz, Rx, Ry, Rz, BoneLength
Pinger_Root 0.000000 0.000000 0.000000 -90.000000 0.000000 0.000000 10.000000 
Pelvis 0.000000 0.000000 0.000000 0.000000 0.000000 0.000000 10.000000 
L_Hip 0.000000 0.000000 0.000000 0.000000 0.000000 0.000000 10.000000 
R_Hip 0.000000 0.000000 0.000000 0.000000 0.000000 0.000000 10.000000 
Rear_Leg01 0.000000 0.000000 0.000000 0.000000 0.000000 0.000000 10.000000 
Spine1 0.000000 0.000000 0.000000 0.000000 0.000000 0.000000 10.000000 
L_Leg01 0.000000 0.000000 0.000000 0.000000 0.000000 0.000000 10.000000 
L_Leg02 0.000000 0.000000 0.000000 0.000000 0.000000 0.000000 10.000000 
L_Leg03 0.000000 0.000000 0.000000 0.000000 0.000000 0.000000 10.000000 
L_Foot 0.000000 0.000000 0.000000 0.000000 0.000000 0.000000 10.000000 
L_Toe1_01 0.000000 0.000000 0.000000 0.000000 0.000000 0.000000 10.000000 
L_Toe2_01 0.000000 0.000000 0.000000 0.000000 0.000000 0.000000 10.000000 
L_Toe3_01 0.000000 0.000000 0.000000 0.000000 0.000000 0.000000 10.000000 
planeAlignerLeft 0.000000 0.000000 0.000000 0.000000 0.000000 0.000000 10.000000 
L_Toe1_02 0.000000 0.000000 0.000000 0.000000 0.000000 0.000000 10.000000 
L_Toe1_03 0.000000 0.000000 0.000000 0.000000 0.000000 0.000000 10.000000 
L_Toe2_02 0.000000 0.000000 0.000000 0.000000 0.000000 0.000000 10.000000 
L_Toe2_03 0.000000 0.000000 0.000000 0.000000 0.000000 0.000000 10.000000 
L_Toe3_02 0.000000 0.000000 0.000000 0.000000 0.000000 0.000000 10.000000 
L_Toe3_03 0.000000 0.000000 0.000000 0.000000 0.000000 0.000000 10.000000 
planeLockWeightLeft 0.000000 0.000000 0.000000 0.000000 0.000000 0.000000 10.000000 
R_Leg01 0.000000 0.000000 0.000000 0.000000 0.000000 0.000000 10.000000 
R_Leg02 0.000000 0.000000 0.000000 0.000000 0.000000 0.000000 10.000000 
R_Leg03 0.000000 0.000000 0.000000 0.000000 0.000000 0.000000 10.000000 
R_Foot 0.000000 0.000000 0.000000 0.000000 0.000000 0.000000 10.000000 
planeAlignerRight 0.000000 0.000000 0.000000 0.000000 0.000000 0.000000 10.000000 
R_Toe1_01 0.000000 0.000000 0.000000 0.000000 0.000000 0.000000 10.000000 
R_Toe2_01 0.000000 0.000000 0.000000 0.000000 0.000000 0.000000 10.000000 
R_Toe3_01 0.000000 0.000000 0.000000 0.000000 0.000000 0.000000 10.000000 
planeLockWeightRight 0.000000 0.000000 0.000000 0.000000 0.000000 0.000000 10.000000 
R_Toe1_02 0.000000 0.000000 0.000000 0.000000 0.000000 0.000000 10.000000 
R_Toe1_03 0.000000 0.000000 0.000000 0.000000 0.000000 0.000000 10.000000 
R_Toe2_02 0.000000 0.000000 0.000000 0.000000 0.000000 0.000000 10.000000 
R_Toe2_03 0.000000 0.000000 0.000000 0.000000 0.000000 0.000000 10.000000 
R_Toe3_02 0.000000 0.000000 0.000000 0.000000 0.000000 0.000000 10.000000 
R_Toe3_03 0.000000 0.000000 0.000000 0.000000 0.000000 0.000000 10.000000 
Rear_Leg02 0.000000 0.000000 0.000000 0.000000 0.000000 0.000000 10.000000 
Rear_Leg03 0.000000 0.000000 0.000000 0.000000 0.000000 0.000000 10.000000 
Rear_Leg04 0.000000 0.000000 0.000000 0.000000 0.000000 0.000000 10.000000 
Rear_Foot 0.000000 0.000000 0.000000 0.000000 0.000000 0.000000 10.000000 
planeAlignerCenter 0.000000 0.000000 0.000000 0.000000 0.000000 0.000000 10.000000 
Rear_Toe1_01 0.000000 0.000000 0.000000 0.000000 0.000000 0.000000 10.000000 
Rear_Toe2_01 0.000000 0.000000 0.000000 0.000000 0.000000 0.000000 10.000000 
Rear_Toe3_01 0.000000 0.000000 0.000000 0.000000 0.000000 0.000000 10.000000 
planeLockWeightCenter 0.000000 0.000000 0.000000 0.000000 0.000000 0.000000 10.000000 
Rear_Toe1_02 0.000000 0.000000 0.000000 0.000000 0.000000 0.000000 10.000000 
Rear_Toe1_03 0.000000 0.000000 0.000000 0.000000 0.000000 0.000000 10.000000 
Rear_Toe2_02 0.000000 0.000000 0.000000 0.000000 0.000000 0.000000 10.000000 
Rear_Toe2_03 0.000000 0.000000 0.000000 0.000000 0.000000 0.000000 10.000000 
Rear_Toe3_02 0.000000 0.000000 0.000000 0.000000 0.000000 0.000000 10.000000 
Rear_Toe3_03 0.000000 0.000000 0.000000 0.000000 0.000000 0.000000 10.000000 
Back_Bone 0.000000 0.000000 0.000000 0.000000 0.000000 0.000000 10.000000 
Head 0.000000 0.000000 0.000000 0.000000 0.000000 0.000000 10.000000 
Motor_Bone 0.000000 0.000000 0.000000 0.000000 0.000000 0.000000 10.000000 
Ping_Mechanism 0.000000 0.000000 0.000000 0.000000 0.000000 0.000000 10.000000 
BN_LookIK 0.000000 0.000000 0.000000 0.000000 0.000000 0.000000 10.000000 
bottomMouth 0.000000 0.000000 0.000000 0.000000 0.000000 0.000000 10.000000 
L_Mouth01 0.000000 0.000000 0.000000 0.000000 0.000000 0.000000 10.000000 
L_mouthFront 0.000000 0.000000 0.000000 0.000000 0.000000 0.000000 10.000000 
mouthGun 0.000000 0.000000 0.000000 0.000000 0.000000 0.000000 10.000000 
R_Mouth01 0.000000 0.000000 0.000000 0.000000 0.000000 0.000000 10.000000 
R_mouthFront 0.000000 0.000000 0.000000 0.000000 0.000000 0.000000 10.000000 
TopMouth 0.000000 0.000000 0.000000 0.000000 0.000000 0.000000 10.000000 
weapon_bone 0.000000 0.000000 0.000000 0.000000 0.000000 0.000000 10.000000 
#Beginning of Data. Separated by tabs
#Fr	Tx	Ty	Tz	Rx	Ry	Rz	SF
[Pinger_Root]
35 0.000000 4407.405762 0.000000 -0.000075 -0.000000 -0.000020 4407.405762
36 0.000000 4537.036133 0.000000 -0.000075 -0.000000 -0.000020 4537.036133
37 0.000000 4666.665527 0.000000 -0.000075 -0.000000 -0.000020 4666.665527
[Pelvis]
35 425.686493 998.774902 5272.998047 55.933739 -82.309792 -31.531214 5383.610840
36 460.196075 1009.219055 5281.082031 55.730839 -84.177483 -31.215990 5396.307129
37 486.242828 1021.836609 5285.566895 50.841637 -86.520592 -26.712551 5405.349121
[L_Hip]
35 5.766392 125.831482 872.656799 -178.250168 -81.786369 87.376007 881.701050
36 5.766392 125.831482 872.656799 -178.250168 -81.786369 87.376007 881.701050
37 5.766392 125.831482 872.656799 -178.250168 -81.786369 87.376007 881.701050
[R_Hip]
35 5.765438 125.836372 -872.654907 -1.748770 81.786041 87.376961 881.699829
36 5.765438 125.836372 -872.654907 -1.748770 81.786041 87.376961 881.699829
37 5.765438 125.836372 -872.654907 -1.748770 81.786041 87.376961 881.699829
[Rear_Leg01]
35 -192.298416 -925.602966 -0.001907 -162.326096 -14.571886 -157.046692 945.367432
36 -192.298416 -925.602966 -0.001907 -163.095291 -16.457663 -157.326828 945.367432
37 -192.298416 -925.602966 -0.001907 -164.428223 -17.993715 -157.946075 945.367432
[Spine1]
35 290.604584 5.007505 0.000477 -26.180689 9.143373 34.880276 290.647736
36 290.604584 5.007505 0.000477 -25.773409 10.145355 33.574898 290.647736
37 290.604584 5.007505 0.000477 -24.868011 10.934326 31.787533 290.647736
[L_Leg01]
35 761.932007 -0.002384 -0.069261 110.744507 -32.752781 -85.899796 761.932068
36 761.932007 -0.002384 -0.069261 103.280800 -34.399555 -79.119316 761.932068
37 761.932007 -0.002384 -0.069261 95.130302 -34.510738 -73.185867 761.932068
[L_Leg02]
35 1441.140503 -0.000954 -0.000715 1.932782 -0.403119 -135.171570 1441.140503
36 1441.140503 -0.000954 -0.000715 3.065814 -0.298439 -136.689285 1441.140503
37 1441.140503 -0.000954 -0.000715 4.036342 0.048912 -136.177475 1441.140503
[L_Leg03]
35 1686.963989 -0.000715 -0.000954 0.009222 -0.001483 108.266510 1686.963989
36 1686.963989 -0.000715 -0.000954 -0.020753 0.008441 116.308151 1686.963989
37 1686.963989 -0.000715 -0.000954 -0.049350 0.022078 123.339752 1686.963989
[L_Foot]
35 3041.570068 -30.715107 11.297464 -32.903572 12.041493 47.977955 3041.746094
36 3041.570068 -30.715107 11.297464 -26.778395 11.253829 49.803669 3041.746094
37 3041.570068 -30.715107 11.297464 -20.084263 10.485356 52.826874 3041.746094
[L_Toe1_01]
35 -188.216690 -224.732346 -21.137953 88.630577 -1.604322 -139.976532 293.899567
36 -188.216690 -224.732346 -21.137953 88.640221 -1.630950 -139.933731 293.899567
37 -188.216690 -224.732346 -21.137953 88.649849 -1.657577 -139.890915 293.899567
[L_Toe2_01]
35 200.746536 -219.926590 148.838394 -73.162216 -3.797880 -76.699356 332.896027
36 200.746536 -219.926590 148.838394 -73.288231 -3.774775 -75.849724 332.896027
37 200.746536 -219.926590 148.838394 -73.413895 -3.749809 -75.000031 332.896027
[L_Toe3_01]
35 188.832520 -219.859131 -191.078659 -111.424835 4.518493 -77.793167 347.140900
36 188.832520 -219.859131 -191.078659 -111.265564 4.493033 -76.939575 347.140900
37 188.832520 -219.859131 -191.078659 -111.106682 4.465228 -76.085999 347.140900
[planeAlignerLeft]
35 -18.641499 -789.364685 3.486135 0.000000 -90.000000 -90.001900 789.592468
36 7.065538 -779.450134 1.165121 0.000000 -90.000000 -90.001900 779.483032
37 34.994446 -772.536560 -1.608150 0.000000 -90.000000 -90.001900 773.330444
[L_Toe1_02]
35 413.761139 0.000477 0.000000 0.001450 -18.080538 0.001450 413.761139
36 413.761139 0.000477 0.000000 0.001454 -17.622314 0.001454 413.761139
37 413.761139 0.000477 0.000000 0.001459 -17.164082 0.001459 413.761139
[L_Toe1_03]
35 464.317322 0.000358 -0.000089 -179.992188 83.108551 -179.988678 464.317322
36 464.317322 0.000358 -0.000089 -179.994003 81.492844 -179.990494 464.317322
37 464.317322 0.000358 -0.000089 -179.995239 79.876747 -179.991730 464.317322
[L_Toe2_02]
35 342.235809 -0.000477 0.000238 0.001180 -77.998970 0.001180 342.235809
36 342.235809 -0.000477 0.000238 0.001180 -77.919495 0.001180 342.235809
37 342.235809 -0.000477 0.000238 0.001180 -77.840073 0.001180 342.235809
[L_Toe2_03]
35 420.210846 -0.000715 0.000000 -179.997086 75.899437 -179.993561 420.210846
36 420.210846 -0.000715 0.000000 -179.997025 76.071877 -179.993500 420.210846
37 420.210846 -0.000715 0.000000 -179.996887 76.462273 -179.993362 420.210846
[L_Toe3_02]
35 329.270111 0.000954 0.000000 0.001177 -81.664688 0.001177 329.270111
36 329.270111 0.000954 0.000000 0.001177 -81.591087 0.001177 329.270111
37 329.270111 0.000954 0.000000 0.001177 -81.517487 0.001177 329.270111
[L_Toe3_03]
35 439.137451 -0.001907 0.000954 -179.997711 73.695557 -179.994186 439.137451
36 439.137451 -0.001907 0.000954 -179.997681 73.822227 -179.994141 439.137451
37 439.137451 -0.001907 0.000954 -179.997589 74.169998 -179.994064 439.137451
[planeLockWeightLeft]
35 -0.000137 0.097839 0.076080 -0.011826 -0.004376 0.005620 0.123939
36 -0.000160 0.097794 0.076096 -0.011826 -0.004376 0.005620 0.123912
37 -0.000183 0.097748 0.076111 -0.011826 -0.004376 0.005620 0.123885
[R_Leg01]
35 761.455627 -0.001907 -0.000358 134.330933 -0.445944 68.608025 761.455688
36 761.455627 -0.001907 -0.000358 136.004257 -0.431915 70.553650 761.455688
37 761.455627 -0.001907 -0.000358 137.146957 -1.370955 72.356651 761.455688
[R_Leg02]
35 1441.140625 0.000000 -0.000238 0.208220 0.024327 -87.850632 1441.140625
36 1441.140625 0.000000 -0.000238 0.207496 0.023747 -87.909683 1441.140625
37 1441.140625 0.000000 -0.000238 0.206772 0.023167 -87.968712 1441.140625
[R_Leg03]
35 1686.963989 0.000954 0.001431 -0.029633 0.007817 102.048775 1686.963989
36 1686.963989 0.000954 0.001431 -0.029110 0.007192 102.113480 1686.963989
37 1686.963989 0.000954 0.001431 -0.028588 0.006566 102.178177 1686.963989
[R_Foot]
35 3041.560059 -30.531288 -11.204481 7.444245 -10.395955 55.632450 3041.734131
36 3041.560059 -30.531288 -11.204481 7.398335 -9.520928 57.396347 3041.734131
37 3041.560059 -30.531288 -11.204481 7.379806 -8.644931 59.155239 3041.734131
[planeAlignerRight]
35 38.478306 -602.319397 20.155853 0.000000 -89.960434 -90.005180 603.883728
36 37.380379 -620.357605 18.063751 0.000000 -89.960434 -90.005180 621.745300
37 34.404930 -643.363220 15.625553 0.000000 -89.960434 -90.005180 644.471985
[R_Toe1_01]
35 -188.383347 -224.864899 21.052242 90.684761 1.040977 -167.644135 294.101532
36 -188.383347 -224.864899 21.052242 90.696762 1.145298 -166.235199 294.101532
37 -188.383347 -224.864899 21.052242 90.722015 1.259346 -164.193085 294.101532
[R_Toe2_01]
35 200.637817 -220.002121 -148.787384 -101.407860 10.942218 -43.478714 332.857574
36 200.637817 -220.002121 -148.787384 -101.780731 10.794876 -45.058460 332.857574
37 200.637817 -220.002121 -148.787384 -102.149155 10.637504 -46.636410 332.857574
[R_Toe3_01]
35 188.606735 -220.092957 191.126343 -74.158592 -16.033815 -46.200695 347.192566
36 188.606735 -220.092957 191.126343 -73.896172 -15.528322 -47.351357 347.192566
37 188.606735 -220.092957 191.126343 -73.431885 -14.961722 -49.191208 347.192566
[planeLockWeightRight]
35 999.999573 0.000000 0.076119 -0.011823 -0.004379 -0.000027 999.999573
36 999.999573 0.000000 0.076129 -0.011823 -0.004379 -0.000027 999.999573
37 999.999573 0.000000 0.076138 -0.011823 -0.004379 -0.000027 999.999573
[R_Toe1_02]
35 413.762085 0.000477 -0.000119 0.001428 -20.493525 0.001428 413.762085
36 413.762085 0.000477 -0.000119 0.001424 -21.005114 0.001424 413.762085
37 413.762085 0.000477 -0.000119 0.001420 -21.516720 0.001420 413.762085
[R_Toe1_03]
35 464.317810 0.000000 0.001088 -0.055134 88.765999 -0.051637 464.317810
36 464.317810 0.000000 0.001088 -0.027188 87.410629 -0.023690 464.317810
37 464.317810 0.000000 0.001088 -0.015995 85.375511 -0.012496 464.317810
[R_Toe2_02]
35 342.234741 -0.000954 0.000238 -0.002340 -76.375671 -0.002340 342.234741
36 342.234741 -0.000954 0.000238 -0.002341 -75.852036 -0.002341 342.234741
37 342.234741 -0.000954 0.000238 -0.002342 -75.328423 -0.002342 342.234741
[R_Toe2_03]
35 420.210846 0.000715 -0.000268 -179.989944 82.068375 -179.993454 420.210846
36 420.210846 0.000715 -0.000268 -179.987701 83.752228 -179.991211 420.210846
37 420.210846 0.000715 -0.000268 -179.983826 85.436058 -179.987320 420.210846
[R_Toe3_02]
35 329.270355 -0.000477 -0.000954 0.001178 -79.717957 0.001178 329.270355
36 329.270355 -0.000477 -0.000954 0.001179 -79.242928 0.001179 329.270355
37 329.270355 -0.000477 -0.000954 0.001179 -78.767807 0.001179 329.270355
[R_Toe3_03]
35 439.137939 0.000238 0.001431 -179.994003 81.499199 -179.990494 439.137939
36 439.137939 0.000238 0.001431 -179.992538 82.848129 -179.989044 439.137939
37 439.137939 0.000238 0.001431 -179.990402 84.196907 -179.986893 439.137939
[Rear_Leg02]
35 1162.777710 -0.029802 0.005960 -0.894132 8.882638 -102.419441 1162.777710
36 1162.777710 -0.029802 0.005960 0.020122 8.202972 -96.666641 1162.777710
37 1162.777710 -0.029802 0.005960 0.662472 7.146009 -90.741508 1162.777710
[Rear_Leg03]
35 607.192505 -0.013351 -0.073195 0.006507 -0.002011 62.554165 607.192505
36 607.192505 -0.013351 -0.073195 0.006549 -0.001882 60.282589 607.192505
37 607.192505 -0.013351 -0.073195 0.006586 -0.001752 58.009235 607.192505
[Rear_Leg04]
35 995.874512 -0.020504 -0.011921 -0.039033 -0.017319 54.832150 995.874573
36 995.874512 -0.020504 -0.011921 -0.038075 -0.016922 50.712105 995.874573
37 995.874512 -0.020504 -0.011921 -0.037154 -0.016460 46.618645 995.874573
[Rear_Foot]
35 3096.176270 -0.067472 -0.041425 134.641083 79.078720 -37.390202 3096.176270
36 3096.176270 -0.067472 -0.041425 140.368896 78.880951 -29.937054 3096.176270
37 3096.176270 -0.067472 -0.041425 146.233170 78.946930 -22.264526 3096.176270
[planeAlignerCenter]
35 1.026192 78.912910 -718.880737 0.000009 0.000003 -179.999985 723.199707
36 1.024294 82.904785 -710.699036 0.000009 0.000003 -179.999985 715.518982
37 1.024618 87.252014 -708.339722 0.000009 0.000003 -179.999985 713.693970
[Rear_Toe1_01]
35 0.653352 83.966492 -371.173737 0.058241 22.961767 90.028961 380.553192
36 0.653352 83.966492 -371.173737 0.058012 22.540678 90.028557 380.553192
37 0.653352 83.966492 -371.173737 0.055336 22.551374 90.033020 380.553192
[Rear_Toe2_01]
35 178.200760 -294.826019 -362.060547 1.013164 47.654102 -69.776978 499.765686
36 178.200760 -294.826019 -362.060547 1.064488 47.331196 -69.658730 499.765686
37 178.200760 -294.826019 -362.060547 1.114524 47.008194 -69.541588 499.765686
[Rear_Toe3_01]
35 -153.359680 -308.780914 -362.060852 -1.270819 47.652851 -112.717712 499.952881
36 -153.359680 -308.780914 -362.060852 -1.329319 47.335663 -112.848511 499.952881
37 -153.359680 -308.780914 -362.060852 -1.386418 47.018356 -112.978027 499.952881
[planeLockWeightCenter]
35 1000.000366 0.000346 0.076253 -0.011814 -0.004373 -0.000015 1000.000366
36 1000.000366 0.000342 0.076257 -0.011814 -0.004373 -0.000015 1000.000366
37 1000.000366 0.000338 0.076260 -0.011814 -0.004373 -0.000015 1000.000366
[Rear_Toe1_02]
35 379.707825 0.194073 0.000477 -0.000767 -33.624729 0.000838 379.707855
36 379.707825 0.194073 0.000477 -0.000767 -33.624729 0.000838 379.707855
37 379.707825 0.194073 0.000477 -0.000767 -33.624729 0.000838 379.707855
[Rear_Toe1_03]
35 500.129700 0.165701 0.000119 0.007073 70.896484 0.007073 500.129761
36 500.129700 0.165701 0.000119 0.007025 70.765938 0.007025 500.129761
37 500.129700 0.165701 0.000119 0.006786 70.081932 0.006786 500.129761
[Rear_Toe2_02]
35 340.494507 0.000238 -0.000954 0.001175 -84.905731 0.001175 340.494507
36 340.494507 0.000238 -0.000954 0.001175 -85.465210 0.001175 340.494507
37 340.494507 0.000238 -0.000954 0.001174 -85.681175 0.001174 340.494507
[Rear_Toe2_03]
35 433.103577 0.000000 0.000238 179.984848 81.121124 179.984848 433.103546
36 433.103577 0.000000 0.000238 179.986328 80.151642 179.986328 433.103546
37 433.103577 0.000000 0.000238 179.987549 79.182121 179.987549 433.103546
[Rear_Toe3_02]
35 340.494141 -0.000358 -0.000477 0.001175 -84.807365 0.001175 340.494171
36 340.494141 -0.000358 -0.000477 0.001175 -85.364265 0.001175 340.494171
37 340.494141 -0.000358 -0.000477 0.001174 -85.580048 0.001174 340.494171
[Rear_Toe3_03]
35 433.103577 0.001431 -0.000238 -179.994110 81.381813 -179.990601 433.103546
36 433.103577 0.001431 -0.000238 -179.994873 80.420120 -179.991364 433.103546
37 433.103577 0.001431 -0.000238 -179.995499 79.458366 -179.991989 433.103546
[Back_Bone]
35 1312.175781 -701.934692 0.000954 2.721387 2.694739 -83.412727 1488.125488
36 1312.175781 -701.934692 0.000954 2.636139 3.033846 -82.984337 1488.125488
37 1312.175781 -701.934692 0.000954 2.377839 3.059946 -82.530098 1488.125488
[Head]
35 1406.159424 809.709290 0.001431 3.970532 -1.494375 -0.099629 1622.625488
36 1406.159424 809.709290 0.001431 3.926690 -1.182406 -0.202186 1622.625488
37 1406.159424 809.709290 0.001431 3.882292 -0.870513 -0.304970 1622.625488
[Motor_Bone]
35 1158.364380 -417.834747 0.000477 2.853682 -2.893695 -108.875999 1231.419434
36 1158.364380 -417.834747 0.000477 5.387601 -1.836383 -107.820099 1231.419434
37 1158.364380 -417.834747 0.000477 -0.064436 0.133398 -105.853737 1231.419434
[Ping_Mechanism]
35 1200.733643 -418.240509 29.806776 0.000103 -0.000053 82.120995 1271.839111
36 1203.488159 -421.875580 22.731148 0.000103 -0.000053 82.120995 1275.491821
37 1208.855225 -427.368134 13.520196 0.000103 -0.000053 82.120995 1282.246948
[BN_LookIK]
35 193.241119 1380.371704 -0.002861 0.000000 89.965736 -31.038179 1393.832153
36 193.241119 1380.371704 -0.002861 0.000000 89.965736 -31.038179 1393.832153
37 193.241119 1380.371704 -0.002861 0.000000 89.965736 -31.038179 1393.832153
[bottomMouth]
35 -435.092926 615.759399 -0.000954 -0.000022 0.000016 73.527184 753.966492
36 -435.092926 615.759399 -0.000954 -0.000022 0.000016 73.527184 753.966492
37 -435.092926 615.759399 -0.000954 -0.000022 0.000016 73.527184 753.966492
[L_Mouth01]
35 554.440979 7.658243 838.222046 150.204178 23.759130 109.605339 1005.027161
36 554.440979 7.658243 838.222046 150.204178 23.759130 109.605339 1005.027161
37 554.440979 7.658243 838.222046 150.204178 23.759130 109.605339 1005.027161
[L_mouthFront]
35 551.629089 934.514771 339.150421 0.000081 2.804060 79.119301 1136.941284
36 551.629089 934.514771 339.150421 0.000081 2.804060 79.119301 1136.941284
37 551.629089 934.514771 339.150421 0.000081 2.804060 79.119301 1136.941284
[mouthGun]
35 55.332661 1627.420898 0.000000 0.000023 0.000009 -11.038128 1628.361328
36 55.332661 1627.420898 0.000000 0.000023 0.000009 -11.038128 1628.361328
37 55.332661 1627.420898 0.000000 0.000023 0.000009 -11.038128 1628.361328
[R_Mouth01]
35 554.442383 7.659197 -838.223938 29.795891 -23.759109 109.605331 1005.029541
36 554.442383 7.659197 -838.223938 29.795891 -23.759109 109.605331 1005.029541
37 554.442383 7.659197 -838.223938 29.795891 -23.759109 109.605331 1005.029541
[R_mouthFront]
35 551.629089 934.514282 -339.151367 0.000029 -2.803930 79.119133 1136.941162
36 551.629089 934.514282 -339.151367 0.000029 -2.803930 79.119133 1136.941162
37 551.629089 934.514282 -339.151367 0.000029 -2.803930 79.119133 1136.941162
[TopMouth]
35 461.269867 -56.106091 -0.008583 -0.000059 -0.000268 92.025169 464.669525
36 461.269867 -56.106091 -0.008583 -0.000059 -0.000268 92.025169 464.669525
37 461.269867 -56.106091 -0.008583 -0.000059 -0.000268 92.025169 464.669525
[weapon_bone]
35 -987.239868 1448.372803 0.001431 0.000000 89.965736 -31.038221 1752.833740
36 -987.239868 1448.372803 0.001431 0.000000 89.965736 -31.038221 1752.833740
37 -987.239868 1448.372803 0.001431 0.000000 89.965736 -31.038221 1752.833740
